<?xml version="1.0" encoding="UTF-8"?>
<svg version="1.1" xmlns="http://www.w3.org/2000/svg" width="512" height="512">
<path d="M0 0 C0.85355576 -0.00979385 1.70711151 -0.01958771 2.58653259 -0.02967834 C45.16501558 -0.41747722 86.88170927 5.91444681 119.91015625 35.23828125 C121.14958984 36.26308594 121.14958984 36.26308594 122.4140625 37.30859375 C143.40058895 55.10937205 155.69570535 80.63336779 160.91015625 107.23828125 C161.08812744 108.09413818 161.26609863 108.94999512 161.44946289 109.83178711 C162.06543554 114.38645924 162.03324785 118.85879489 162.0078125 123.44921875 C162.00569008 124.90142319 162.00569008 124.90142319 162.00352478 126.38296509 C161.9979499 129.45976924 161.98540202 132.53649928 161.97265625 135.61328125 C161.967638 137.70572811 161.96307566 139.79817612 161.95898438 141.890625 C161.9479887 147.00653875 161.9307414 152.12239746 161.91015625 157.23828125 C162.5207338 157.23311493 163.13131134 157.22794861 163.76039124 157.22262573 C164.56528488 157.21860748 165.37017853 157.21458923 166.19946289 157.21044922 C166.99566544 157.2052829 167.79186798 157.20011658 168.61219788 157.1947937 C180.06451146 157.41152219 189.71332056 162.23735258 198.09765625 169.73828125 C204.6603168 176.62107158 209.95584391 186.86079038 210.0871582 196.44921875 C210.09999344 197.27107666 210.11282867 198.09293457 210.12605286 198.93969727 C210.13713326 200.26312134 210.13713326 200.26312134 210.1484375 201.61328125 C210.15650925 202.53359131 210.16458099 203.45390137 210.17289734 204.40209961 C210.1867191 206.35219451 210.19744978 208.30231341 210.20532227 210.25244141 C210.21679553 212.22875149 210.23717275 214.20503173 210.2668457 216.18115234 C210.52509023 233.3926452 209.05875976 245.46514829 196.87890625 258.39453125 C188.51721328 266.51385631 178.16199289 270.45790066 166.53515625 270.30078125 C165.66117187 270.29175781 164.7871875 270.28273438 163.88671875 270.2734375 C162.90832031 270.25603516 162.90832031 270.25603516 161.91015625 270.23828125 C161.94496094 271.18445313 161.97976563 272.130625 162.015625 273.10546875 C162.88513025 307.56347642 149.28147553 341.28583231 125.74609375 366.40625 C110.21832295 381.90098299 91.0194775 393.33325086 69.91015625 399.23828125 C68.8221875 399.54507812 67.73421875 399.851875 66.61328125 400.16796875 C58.39339257 402.27306219 50.35978742 402.89936105 41.91015625 403.23828125 C41.6265625 404.00914062 41.34296875 404.78 41.05078125 405.57421875 C38.66916312 411.1367652 34.34696845 413.9859389 28.91015625 416.23828125 C26.16478116 416.53151105 23.65416575 416.6831623 20.9140625 416.671875 C20.16229233 416.67711685 19.41052216 416.6823587 18.63597107 416.6877594 C17.05346913 416.69415341 15.47091949 416.69287669 13.88842773 416.68432617 C11.48269034 416.67581674 9.07933144 416.70460882 6.67382812 416.73632812 C5.12890695 416.73794058 3.58398163 416.73736176 2.0390625 416.734375 C1.32843155 416.74560898 0.6178006 416.75684296 -0.11436462 416.76841736 C-6.33322904 416.68272969 -10.39771281 414.63007304 -15.015625 410.52734375 C-20.8384131 403.53999804 -21.87076801 397.22531131 -21.08984375 388.23828125 C-19.85363717 381.21271117 -15.77674848 377.27696599 -10.08984375 373.23828125 C-6.34861259 370.79005349 -2.57817114 370.93207225 1.74609375 370.9375 C2.50306549 370.93321487 3.26003723 370.92892975 4.03994751 370.92451477 C5.63860069 370.91878229 7.23727995 370.91826324 8.8359375 370.92260742 C11.26998916 370.9257616 13.70281774 370.90231652 16.13671875 370.87695312 C17.69400889 370.87467928 19.25130228 370.87397703 20.80859375 370.875 C21.5306601 370.86579025 22.25272644 370.85658051 22.99667358 370.84709167 C28.7234373 370.89898688 32.75633303 372.27034146 36.9921875 376.140625 C37.56324219 376.81222656 38.13429688 377.48382813 38.72265625 378.17578125 C39.30660156 378.84480469 39.89054688 379.51382812 40.4921875 380.203125 C41.94172408 382.28358935 42.37365801 383.79586108 42.91015625 386.23828125 C66.08291585 381.94862889 86.63864086 375.70678007 104.91015625 360.23828125 C105.61140625 359.69300781 106.31265625 359.14773438 107.03515625 358.5859375 C128.67268444 340.92816896 140.319482 312.26601126 143.91015625 285.23828125 C144.17530406 281.40417163 144.23305222 277.58460192 144.25390625 273.7421875 C144.27584045 272.18732887 144.27584045 272.18732887 144.29821777 270.60105896 C144.35983405 266.22219452 144.40024076 261.84320419 144.44189453 257.46411133 C144.47562131 254.24415413 144.52068947 251.02449318 144.56640625 247.8046875 C144.57168335 246.81819717 144.57696045 245.83170685 144.58239746 244.81532288 C144.73258791 234.49361989 144.73258791 234.49361989 148.66015625 230.42578125 C151.68910554 228.82716913 153.52417676 228.75456989 156.91015625 229.23828125 C159.58203125 230.625 159.58203125 230.625 161.91015625 233.23828125 C162.53443408 236.67161909 162.3808335 240.01324882 162.22265625 243.48828125 C162.20009766 244.42414063 162.17753906 245.36 162.15429688 246.32421875 C162.0954622 248.63053799 162.01332771 250.93358963 161.91015625 253.23828125 C171.69427383 252.34881602 179.9219157 250.66208543 186.7890625 243.1953125 C193.12075575 234.57505542 193.23940831 224.66298834 193.16015625 214.30078125 C193.16789062 213.29337891 193.175625 212.28597656 193.18359375 211.24804688 C193.15610422 200.56149152 192.51821815 190.36830998 184.91015625 182.23828125 C178.01356982 176.42669124 170.71984414 175.03916197 161.91015625 174.23828125 C161.94157715 175.11564941 161.94157715 175.11564941 161.97363281 176.01074219 C162.0569574 178.6697459 162.10886522 181.3284748 162.16015625 183.98828125 C162.21042969 185.36886719 162.21042969 185.36886719 162.26171875 186.77734375 C162.36020883 193.57315929 162.36020883 193.57315929 160.14453125 196.84765625 C156.68296808 199.00205571 153.85676385 199.04867295 149.91015625 198.23828125 C146.6675748 195.91027405 145.59703342 194.08050124 144.91015625 190.23828125 C144.81396455 187.88869986 144.77475724 185.53659937 144.76831055 183.18505859 C144.76309891 182.13027565 144.76309891 182.13027565 144.75778198 181.05418396 C144.75043979 179.52807781 144.74508623 178.00196109 144.74149132 176.47584152 C144.73428112 174.04253471 144.71857402 171.6094244 144.70014954 169.17617798 C144.64794379 162.25745608 144.5998914 155.33883579 144.58422852 148.41992188 C144.57400669 144.18104298 144.54432003 139.94265198 144.50290871 135.70396805 C144.4907793 134.10563517 144.48544351 132.50723274 144.48770714 130.90885544 C144.51703701 103.39844355 135.44257896 77.81566095 116.91015625 57.23828125 C115.88148438 56.08585937 115.88148438 56.08585937 114.83203125 54.91015625 C89.66151516 28.24805402 51.72922382 18.55893866 16.28125 17.3359375 C-19.97292029 16.45708798 -58.85926108 25.14223839 -86.15234375 50.36328125 C-88.16742604 52.29048868 -90.12999807 54.25348704 -92.08984375 56.23828125 C-92.76402344 56.91375 -93.43820313 57.58921875 -94.1328125 58.28515625 C-109.82410044 75.08955615 -120.09599258 99.7715241 -120.26342773 122.72485352 C-120.27345825 123.81139725 -120.27345825 123.81139725 -120.28369141 124.91989136 C-120.29767263 126.48308747 -120.3095883 128.04630317 -120.31963921 129.6095295 C-120.33614368 132.08562035 -120.35938217 134.56156517 -120.38453674 137.0375824 C-120.45507165 144.07405248 -120.5154924 151.11057945 -120.56665039 158.1472168 C-120.59847209 162.45954144 -120.63974573 166.77169213 -120.68684578 171.08387566 C-120.70283456 172.72366141 -120.71517052 174.36348708 -120.72375298 176.00332832 C-120.73593209 178.2960997 -120.76008959 180.58846268 -120.78686523 182.88110352 C-120.7971727 184.18427017 -120.80748016 185.48743683 -120.81809998 186.83009338 C-121.13642121 190.82245191 -122.11806302 193.67263452 -124.21484375 197.05078125 C-126.73436738 198.64647955 -129.12447744 198.64968685 -132.0546875 198.734375 C-135.25195064 197.95500376 -136.23682588 196.9869929 -138.08984375 194.23828125 C-138.57894279 190.8085075 -138.46566877 187.44362989 -138.33984375 183.98828125 C-138.32179687 183.05242187 -138.30375 182.1165625 -138.28515625 181.15234375 C-138.23810048 178.8466111 -138.17238088 176.5429718 -138.08984375 174.23828125 C-147.89267973 175.12944816 -156.03780591 176.83963791 -162.96875 184.24609375 C-169.49713845 193.02402328 -169.42072085 203.76653918 -169.33984375 214.30078125 C-169.34757812 215.31205078 -169.3553125 216.32332031 -169.36328125 217.36523438 C-169.33607786 227.92695235 -168.36615222 237.128563 -161.08984375 245.23828125 C-155.51319017 249.79291864 -149.52468112 252.03570543 -142.3984375 252.78515625 C-141.59075928 252.87120117 -140.78308105 252.95724609 -139.95092773 253.04589844 C-139.33677002 253.10938477 -138.7226123 253.17287109 -138.08984375 253.23828125 C-138.11602783 252.65336914 -138.14221191 252.06845703 -138.16918945 251.46582031 C-138.27334131 248.80691559 -138.33822147 246.14843981 -138.40234375 243.48828125 C-138.46518555 242.10769531 -138.46518555 242.10769531 -138.52929688 240.69921875 C-138.6530425 233.86846009 -138.6530425 233.86846009 -135.7578125 230.62890625 C-132.48661542 228.92386063 -130.73100186 228.63142157 -127.08984375 229.23828125 C-122.48865431 232.10124357 -122.48865431 232.10124357 -121.46362305 235.02368164 C-120.64887688 239.85095956 -120.90511289 244.79379283 -120.90234375 249.67578125 C-120.89009766 250.80822266 -120.87785156 251.94066406 -120.86523438 253.10742188 C-120.86330078 254.20119141 -120.86136719 255.29496094 -120.859375 256.421875 C-120.85526611 257.41759521 -120.85115723 258.41331543 -120.84692383 259.43920898 C-121.19735328 263.47707198 -121.98940772 266.16909433 -124.9296875 269.02587891 C-127.38782844 270.40552718 -128.84996684 270.62459974 -131.65234375 270.63671875 C-132.52592529 270.64300293 -133.39950684 270.64928711 -134.29956055 270.65576172 C-135.220354 270.64174316 -136.14114746 270.62772461 -137.08984375 270.61328125 C-138.03448486 270.60312988 -138.97912598 270.59297852 -139.95239258 270.58251953 C-153.601092 270.28028243 -164.31479624 266.8911062 -174.40234375 257.42578125 C-182.90014703 248.41399793 -186.56518864 237.56540864 -186.5234375 225.33984375 C-186.52867935 224.42423676 -186.5339212 223.50862976 -186.5393219 222.5652771 C-186.54570487 220.64085904 -186.54445381 218.71640177 -186.53588867 216.79199219 C-186.52738534 213.87753477 -186.55618178 210.96504548 -186.58789062 208.05078125 C-186.64825355 192.18968027 -183.80269578 180.60162888 -172.96484375 168.55078125 C-164.66656364 160.67382662 -153.66074251 157.18741602 -142.42456055 157.22412109 C-141.20738594 157.22718765 -141.20738594 157.22718765 -139.96562195 157.23031616 C-139.03711174 157.23425888 -139.03711174 157.23425888 -138.08984375 157.23828125 C-138.11079102 156.00489014 -138.13173828 154.77149902 -138.15332031 153.50073242 C-138.22692361 148.82832933 -138.27207075 144.15597476 -138.30957031 139.4831543 C-138.32941665 137.47883426 -138.35650272 135.47456995 -138.39160156 133.47045898 C-138.98759726 98.50829971 -127.54754811 66.47796768 -103.06640625 41.1171875 C-94.23862853 32.3576811 -83.88954625 25.32609432 -73.08984375 19.23828125 C-72.03796875 18.64402344 -70.98609375 18.04976562 -69.90234375 17.4375 C-48.75422249 6.19009117 -23.92467576 0.22717838 0 0 Z M-2.08984375 388.23828125 C-4.4404718 391.13205949 -4.4404718 391.13205949 -3.96484375 394.80078125 C-3.49100587 398.24815363 -3.49100587 398.24815363 -1.33569336 399.43432617 C2.78289708 400.9086732 7.01812063 400.56553768 11.34765625 400.55078125 C12.76014648 400.57495117 12.76014648 400.57495117 14.20117188 400.59960938 C21.10068655 400.66710894 21.10068655 400.66710894 26.91015625 397.23828125 C27.49357978 393.69597316 27.49357978 393.69597316 26.91015625 390.23828125 C23.64853206 386.97665706 19.67529894 387.94219471 15.234375 387.91601562 C13.97238281 387.91923828 12.71039063 387.92246094 11.41015625 387.92578125 C10.14816406 387.90966797 8.88617188 387.89355469 7.5859375 387.87695312 C6.38324219 387.87630859 5.18054688 387.87566406 3.94140625 387.875 C2.83345703 387.87201904 1.72550781 387.86903809 0.58398438 387.8659668 C-0.29837891 387.98883057 -1.18074219 388.11169434 -2.08984375 388.23828125 Z " fill="#000000" transform="translate(246.08984375,55.76171875)"/>
<path d="M0 0 C3.22556433 2.7478039 4.58982431 4.88362258 5.640625 8.96484375 C5.90222412 9.92366455 6.16382324 10.88248535 6.43334961 11.87036133 C6.70284424 12.88251709 6.97233887 13.89467285 7.25 14.9375 C9.96406029 24.43929723 13.0299243 32.03224512 19 40 C19.97453125 41.31097656 19.97453125 41.31097656 20.96875 42.6484375 C22.91628826 45.16014359 24.93009793 47.58842504 27 50 C27.64066406 50.75152344 28.28132813 51.50304687 28.94140625 52.27734375 C39.30587027 64.09715945 50.49221252 75.45727386 63 85 C64.16432992 85.91632697 65.32837364 86.83301768 66.4921875 87.75 C90.61588231 106.53319293 118.12342532 121.72233377 147.7890625 129.546875 C148.78719971 129.81064941 149.78533691 130.07442383 150.8137207 130.34619141 C152.76911512 130.85402404 154.72854075 131.34665157 156.69213867 131.82177734 C157.58392822 132.04816895 158.47571777 132.27456055 159.39453125 132.5078125 C160.18706299 132.70004395 160.97959473 132.89227539 161.79614258 133.09033203 C164.77474715 134.31978596 166.11707368 135.35124482 168 138 C168.3871434 141.0342246 168.53763443 143.69545239 168.49609375 146.7265625 C168.49754898 147.58825043 168.49900421 148.44993835 168.50050354 149.33773804 C168.49884334 151.16855229 168.48726853 152.99938032 168.46655273 154.83007812 C168.4381024 157.56704792 168.4458398 160.30201487 168.45898438 163.0390625 C168.44150403 177.64997832 166.84841452 191.90901482 162.8125 206 C162.6060083 206.72727295 162.3995166 207.4545459 162.18676758 208.20385742 C156.8720842 226.02457749 147.91755114 241.77905662 136 256 C135.33613281 256.84949219 134.67226563 257.69898438 133.98828125 258.57421875 C118.34645132 277.65786588 92.06361877 289.1964211 68 292 C63.4125581 292.25330173 58.83947193 292.33039909 54.24682617 292.31567383 C52.19981241 292.31251898 50.15425803 292.33605854 48.10742188 292.36132812 C22.17572959 292.48573804 -2.65784075 283.26125675 -22 266 C-23.03125 265.21625 -24.0625 264.4325 -25.125 263.625 C-48.02309392 242.71804468 -61.57003608 209.56781914 -64 179 C-64.18878147 173.66611251 -64.23864352 168.33272435 -64.2734375 162.99609375 C-64.27876118 162.22780809 -64.28408485 161.45952244 -64.28956985 160.6679554 C-64.31618249 156.59822723 -64.33559163 152.52852841 -64.35009766 148.45874023 C-64.36339743 145.12349793 -64.3911934 141.78887312 -64.43212891 138.45385742 C-64.48195159 134.39206868 -64.50627774 130.33083605 -64.51332474 126.26875496 C-64.51995555 124.73761965 -64.53495813 123.20649271 -64.55921555 121.6755352 C-64.89509385 99.18895149 -55.03135964 81.01776388 -41 64 C-40.443125 63.30132812 -39.88625 62.60265625 -39.3125 61.8828125 C-30.5110619 51.12018439 -18.35474078 42.20856923 -6 36 C-6.54021369 32.89532363 -7.29500483 29.9073474 -8.19140625 26.890625 C-8.41376953 26.13523438 -8.63613281 25.37984375 -8.86523438 24.6015625 C-9.3261411 23.04713198 -9.79476842 21.49496767 -10.27148438 19.9453125 C-11.81537753 14.63395995 -12.67907174 9.53896901 -12 4 C-9.33965416 -0.54475748 -4.91183732 -1.30470679 0 0 Z M-23.5625 70.1875 C-38.86813093 85.95859734 -48.18436268 104.70805827 -48.1328125 126.80859375 C-48.13376923 127.7335817 -48.13472595 128.65856964 -48.13571167 129.61158752 C-48.13638916 131.56389433 -48.13456508 133.51620344 -48.13037109 135.46850586 C-48.12507204 138.3976778 -48.13030217 141.3266925 -48.13671875 144.25585938 C-48.19133245 166.49409601 -48.19133245 166.49409601 -45.3125 188.5 C-45.13807373 189.37817383 -44.96364746 190.25634766 -44.78393555 191.16113281 C-38.91407312 219.18433781 -24.16327141 245.57396272 0.14599609 261.46801758 C23.00622997 275.83706475 49.86324966 278.43510842 75.98046875 273.25390625 C99.749254 267.61852513 119.61876269 252.50739463 132.75927734 232.05859375 C148.27933254 206.30788431 152.13887675 178.54371314 152 149 C150.99924438 148.71503662 150.99924438 148.71503662 149.97827148 148.42431641 C133.74120497 143.74868502 118.2559004 138.27903535 103 131 C101.85893799 130.45738525 101.85893799 130.45738525 100.69482422 129.90380859 C73.1708411 116.59135269 49.08093528 96.90747814 27 76 C25.87271484 74.93652344 25.87271484 74.93652344 24.72265625 73.8515625 C18.71878268 68.02602181 13.57272236 61.51793289 8.390625 54.96484375 C7.30117234 53.60943647 6.15748795 52.29778952 5 51 C-5.20976828 51 -16.665543 63.66629988 -23.5625 70.1875 Z " fill="#000000" transform="translate(204,124)"/>
</svg>
